<?xml version="1.0" standalone="no"?>
<!DOCTYPE svg PUBLIC "-//W3C//DTD SVG 20010904//EN"
 "http://www.w3.org/TR/2001/REC-SVG-20010904/DTD/svg10.dtd">
<svg version="1.0" xmlns="http://www.w3.org/2000/svg"
 width="772.000000pt" height="1280.000000pt" viewBox="0 0 772.000000 1280.000000"
 preserveAspectRatio="xMidYMid meet">
<metadata>
Created by potrace 1.15, written by Peter Selinger 2001-2017
</metadata>
<g transform="translate(0.000000,1280.000000) scale(0.100000,-0.100000)"
fill="#ffc107" stroke="none">
<path d="M7193 12760 c-43 -21 -111 -66 -151 -100 -39 -33 -74 -60 -76 -60 -2
0 -6 9 -9 21 -9 34 -41 8 -68 -55 -15 -36 -30 -56 -41 -56 -23 0 -29 13 -37
73 -12 103 -62 61 -101 -87 -37 -134 -85 -214 -227 -377 -120 -139 -280 -277
-528 -458 -203 -149 -314 -243 -455 -388 -139 -142 -244 -230 -400 -335 -108
-73 -231 -138 -261 -138 -29 0 -147 -40 -334 -112 -99 -38 -215 -82 -258 -98
l-78 -29 -10 26 c-5 15 -14 117 -19 227 -21 470 -90 655 -281 747 -75 36 -132
47 -295 54 -163 7 -260 -8 -359 -55 -90 -43 -174 -116 -207 -179 -34 -64 -36
-131 -14 -391 23 -262 37 -303 135 -388 34 -29 61 -61 61 -70 0 -21 -57 -68
-107 -88 -56 -24 -219 -32 -433 -22 -222 10 -345 28 -430 62 -74 30 -205 115
-294 191 -75 63 -167 110 -408 206 -238 94 -278 128 -278 232 0 24 -6 51 -14
62 -12 16 -18 17 -59 7 -84 -22 -107 -4 -219 160 -44 65 -92 127 -106 139
l-27 21 -3 -26 c-2 -15 6 -55 17 -89 23 -72 35 -127 27 -127 -3 0 -37 47 -77
105 -91 134 -138 172 -125 100 4 -19 5 -35 3 -35 -3 0 -25 12 -51 26 -25 14
-46 23 -46 20 0 -4 31 -55 69 -114 39 -58 67 -109 65 -112 -3 -3 -22 15 -42
38 -77 90 -119 128 -179 160 -33 17 -64 32 -67 32 -3 0 28 -52 69 -115 41 -63
72 -115 69 -115 -3 0 -40 31 -81 69 -42 38 -93 79 -115 91 -34 19 -38 19 -38
4 0 -20 27 -65 92 -155 26 -37 48 -70 48 -73 0 -4 -12 -4 -28 0 -25 6 -24 4
11 -20 20 -15 37 -31 37 -36 0 -5 -50 8 -110 30 -113 40 -135 41 -77 4 18 -12
168 -129 332 -261 331 -264 550 -430 755 -573 188 -131 394 -288 498 -379 154
-136 223 -189 291 -225 36 -19 78 -47 93 -63 82 -87 169 -351 237 -723 85
-464 86 -692 5 -1186 -30 -186 -62 -300 -97 -346 -40 -52 -91 -168 -146 -334
-100 -301 -120 -423 -93 -559 19 -90 27 -711 12 -865 -25 -266 -25 -290 4
-352 24 -51 26 -65 26 -194 0 -146 -16 -307 -49 -484 -37 -198 -53 -257 -158
-599 l-67 -214 32 -386 c42 -503 55 -714 50 -833 -3 -82 -7 -101 -25 -120 -27
-29 -39 -80 -47 -193 -7 -103 -23 -220 -68 -492 -24 -150 -35 -194 -47 -197
-9 -3 -99 -21 -201 -40 -190 -37 -400 -66 -620 -86 -187 -17 -477 -57 -738
-101 -128 -21 -237 -39 -242 -39 -6 0 -10 -246 -10 -660 l0 -660 3719 0 3720
0 -20 68 c-11 37 -36 125 -55 197 -20 72 -40 134 -44 139 -7 7 -98 13 -280 20
-21 1 -34 -3 -33 -10 1 -7 -41 7 -95 31 -113 49 -244 95 -271 95 -32 0 -151
46 -314 122 -622 288 -1366 535 -1827 608 -290 46 -290 45 -290 123 0 59 -12
104 -69 267 -42 120 -65 236 -76 382 -9 106 -28 144 -80 154 -50 9 -58 35 -51
159 7 126 25 246 120 777 115 644 117 668 114 1133 -3 335 -1 401 14 470 41
192 88 301 173 396 82 92 94 141 120 519 28 405 42 532 81 708 45 207 42 520
-7 766 -22 107 -32 133 -86 208 -23 32 -37 64 -41 93 -4 42 -3 44 31 59 19 8
43 26 52 40 47 71 59 223 29 356 -14 62 -16 105 -11 245 9 265 74 660 233
1414 67 318 105 419 181 479 81 63 258 137 368 153 65 9 95 32 95 74 0 24 35
82 79 129 14 15 82 72 151 126 217 170 348 287 581 519 235 236 339 351 479
536 183 240 316 376 515 525 96 72 253 165 365 216 93 42 150 75 150 87 0 10
-76 9 -122 -2 -29 -7 -38 -5 -42 6 -6 15 -59 12 -133 -7 -19 -5 -33 -5 -33 1
0 5 46 44 103 86 141 107 207 173 207 207 0 30 -17 39 -94 50 -53 8 -96 25
-96 37 0 5 -11 16 -24 24 -22 15 -29 14 -79 -3 -53 -17 -55 -17 -66 0 -17 28
-61 22 -148 -22z m-3937 -7798 c4 -114 8 -565 9 -1002 1 -780 1 -801 29 -1120
19 -218 26 -364 24 -445 -4 -111 -9 -132 -56 -280 -28 -88 -76 -253 -107 -368
-30 -114 -63 -226 -72 -248 l-16 -41 -96 6 c-185 13 -297 39 -308 73 -3 7 14
21 36 33 53 27 55 49 15 190 -35 127 -53 242 -69 465 -9 110 -21 225 -27 255
-19 97 -20 148 -3 232 17 85 88 334 174 615 62 201 89 350 101 563 11 210 28
290 100 475 89 232 125 349 160 530 12 61 35 162 53 225 28 104 32 112 38 82
4 -19 10 -127 15 -240z m3992 -4604 l67 -32 -49 -4 c-27 -2 -54 -1 -61 2 -12
4 -39 66 -29 66 2 0 35 -14 72 -32z"/>
</g>
</svg>
